<svg xmlns="http://www.w3.org/2000/svg" viewBox="0 0 1013.95 215.6"><defs><style>.cls-1{fill:#ec8723;}</style></defs><g id="Layer_2" data-name="Layer 2"><g id="Layer_1-2" data-name="Layer 1"><path class="cls-1" d="M129.75,206c0,3.4-1.89,5.39-5.66,5.95q-7.36,1.14-19.69,2.41T69.13,215.6A146.43,146.43,0,0,1,43,213.33a56.54,56.54,0,0,1-22.07-8.78Q11.4,198,5.7,186T0,154.68V60.63Q0,41.37,5.7,29.46T20.94,11.05A56.48,56.48,0,0,1,43.15,2.27,148.84,148.84,0,0,1,69.41,0q11.32,0,20,.43t15.16,1Q111,2,115.73,2.55c3.12.38,5.9.76,8.36,1.13q5.66.86,5.66,5.67V35.7a5.81,5.81,0,0,1-5.66,5.66H66.58q-9.93,0-14,4.11t-4.1,15.16V86.41h73.37a5.81,5.81,0,0,1,5.67,5.66V119a5.79,5.79,0,0,1-5.67,5.66H48.45v30q0,11.06,4.1,15.16t14,4.11h57.51a5.81,5.81,0,0,1,5.66,5.66Z"/><path class="cls-1" d="M328.06,209.65c0,2.26-1.41,3.4-4.24,3.4h-43.6a3.85,3.85,0,0,1-3.42-1.7,37.84,37.84,0,0,1-2.28-4L236.73,135.7l-3.1.29q-4.51,0-10.29-.29c-3.86-.18-7.1-.28-9.73-.28v72a5.44,5.44,0,0,1-1.71,4,5.51,5.51,0,0,1-4,1.7h-37a5.5,5.5,0,0,1-4-1.7,5.44,5.44,0,0,1-1.71-4V17.28c0-4.91,1.05-8.21,3.12-9.91s5.3-2.93,9.65-3.69q4.83-.84,11.64-1.41t14.48-1.14Q211.71.58,219.8.28T235.55,0a165.33,165.33,0,0,1,33.77,3.26,75,75,0,0,1,27.11,11.05,54.2,54.2,0,0,1,18,20.53Q321,47.59,321,66.29V70q0,22.67-10.55,36.54a60.56,60.56,0,0,1-26.22,20.12l43,79.89A7,7,0,0,1,328.06,209.65ZM272.54,66.29q0-13-9.59-19.12T235.6,41.08c-.94,0-2.49.05-4.65.14l-6.63.28-6.48.29c-2.07.09-3.48.14-4.23.14V96.32c.75,0,2.07.05,3.95.14s3.9.2,6.06.29,4.18.14,6.06.14h3.95a92.33,92.33,0,0,0,18.47-1.56,32.7,32.7,0,0,0,12-4.67,17.49,17.49,0,0,0,6.48-8.22,34.53,34.53,0,0,0,2-12.46Z"/><path class="cls-1" d="M513.35,70.83q0,19.83-7.25,33a59.08,59.08,0,0,1-19.17,21.11,78,78,0,0,1-27.13,11.19,148.08,148.08,0,0,1-31.1,3.26q-5.11,0-11.37-.29c-4.16-.18-8.05-.37-11.64-.56v68.84a5.81,5.81,0,0,1-5.67,5.67H363.48a5.67,5.67,0,0,1-4-1.56,5,5,0,0,1-1.7-3.83V17.28q0-7.37,3.12-9.91t9.65-3.69Q381.37,2,397.12,1T428.2,0a157.48,157.48,0,0,1,31.5,3.12,76.14,76.14,0,0,1,27.25,11,59.05,59.05,0,0,1,19.16,21.11q7.23,13.17,7.24,33ZM464.9,68.28q0-15.3-9.21-21.68t-27.05-6.37c-.95,0-2.55.05-4.82.14l-6.94.28-6.8.29c-2.17.09-3.64.14-4.39.14V98.87c.75,0,2.22,0,4.39.15l7.08.28c2.55.1,4.91.14,7.08.14h4.4q19,0,27.62-7.08t8.64-21.53Z"/><path class="cls-1" d="M678.51,37.11a4.82,4.82,0,0,1-1.84,3.83,6.2,6.2,0,0,1-4.11,1.55H626.67V207.38a5.81,5.81,0,0,1-5.67,5.67H583.89a5.81,5.81,0,0,1-5.67-5.67V42.49H532a5.65,5.65,0,0,1-4-1.55,5,5,0,0,1-1.7-3.83V7.93a5,5,0,0,1,1.7-3.82,5.66,5.66,0,0,1,4-1.56H672.56a6.21,6.21,0,0,1,4.11,1.56,4.81,4.81,0,0,1,1.84,3.82Z"/><path class="cls-1" d="M849.91,208.51c0,3-1.6,4.54-4.82,4.54H805.43a5,5,0,0,1-3.68-1.42,7.68,7.68,0,0,1-2-3.68l-10.19-46.47H731.49L721.29,208a7.76,7.76,0,0,1-2,3.68,5,5,0,0,1-3.68,1.42H676q-4.82,0-4.81-4.54a1.19,1.19,0,0,1,.14-.56,2,2,0,0,0,.14-.85L713.64,31.45Q716.19,21.25,721,15a33.3,33.3,0,0,1,11.19-9.5,45.2,45.2,0,0,1,13.74-4.39A97.33,97.33,0,0,1,760.67,0a94.63,94.63,0,0,1,14.59,1.13,45.16,45.16,0,0,1,13.6,4.39A33.39,33.39,0,0,1,800.05,15q4.82,6.23,7.37,16.43L849.63,207.1a1.89,1.89,0,0,0,.14.85A1.32,1.32,0,0,1,849.91,208.51Zm-85.56-164a13.88,13.88,0,0,0-1.13-3.26q-.57-1-2.55-1c-2.08,0-3.4,1.41-4,4.25l-17.28,78.19h42.21Z"/><path class="cls-1" d="M1014,40.8q0,2.27-1.14,3a5.84,5.84,0,0,1-3.11.71h-.85l-25.5-1.42q-15.3-.86-33.43-.85a49.53,49.53,0,0,0-15.44,2.27,26.06,26.06,0,0,0-11.76,7.79q-4.82,5.52-7.36,14.87t-2.55,23.23v35.42q0,14.73,3,24.08t7.65,14.73A24.45,24.45,0,0,0,933.77,172a32.68,32.68,0,0,0,10.77,2q11.61,0,21.81-.85V107.94a5.7,5.7,0,0,1,1.56-4,5,5,0,0,1,3.82-1.7H1008a5.81,5.81,0,0,1,5.66,5.67v95.19q0,5.38-5.66,6.52-11.62,2.26-26.92,4.1a310.6,310.6,0,0,1-36.54,1.85,94.25,94.25,0,0,1-17.29-1.7,81.09,81.09,0,0,1-18-5.67,73.53,73.53,0,0,1-17.13-10.77,71.91,71.91,0,0,1-14.6-16.71,83.19,83.19,0,0,1-10-23.66,122.23,122.23,0,0,1-3.69-31.59V90.37q0-27.2,7.65-44.62t20-27.62A70.63,70.63,0,0,1,919.18,4a123.31,123.31,0,0,1,30.74-4,232.68,232.68,0,0,1,36.26,2.41q15,2.4,23,4.11c3.21.56,4.82,2,4.82,4.24Z"/></g></g></svg>